<mxfile host="app.diagrams.net" agent="Mozilla/5.0 (Windows NT 10.0; Win64; x64) AppleWebKit/537.36 (KHTML, like Gecko) Chrome/132.0.0.0 Safari/537.36" version="26.0.16">
  <diagram name="Page-1" id="A5Zg3xv37mGp3OrxOTRN">
    <mxGraphModel dx="5027" dy="3429" grid="1" gridSize="10" guides="1" tooltips="1" connect="1" arrows="1" fold="1" page="1" pageScale="1" pageWidth="827" pageHeight="1169" math="0" shadow="0">
      <root>
        <mxCell id="0" />
        <mxCell id="1" parent="0" />
        <mxCell id="xIapYy1KkTOoVHICdkQV-1" value="" style="whiteSpace=wrap;html=1;aspect=fixed;" vertex="1" parent="1">
          <mxGeometry x="-350" y="-660" width="3080" height="3080" as="geometry" />
        </mxCell>
        <mxCell id="xIapYy1KkTOoVHICdkQV-2" value="&lt;font style=&quot;font-size: 28px;&quot;&gt;Admin&lt;/font&gt;" style="shape=umlActor;verticalLabelPosition=bottom;verticalAlign=top;html=1;outlineConnect=0;" vertex="1" parent="1">
          <mxGeometry x="-696" y="-320" width="100" height="150" as="geometry" />
        </mxCell>
        <mxCell id="xIapYy1KkTOoVHICdkQV-3" value="&lt;span style=&quot;font-family: &amp;quot;Times New Roman&amp;quot;, serif;&quot;&gt;&lt;font style=&quot;font-size: 24px;&quot;&gt;Créer des comptes&lt;br&gt;utilisateurs&lt;/font&gt;&lt;/span&gt;" style="ellipse;whiteSpace=wrap;html=1;" vertex="1" parent="1">
          <mxGeometry x="160" y="-430" width="260" height="100" as="geometry" />
        </mxCell>
        <mxCell id="xIapYy1KkTOoVHICdkQV-4" value="&lt;span style=&quot;font-family: &amp;quot;Times New Roman&amp;quot;, serif;&quot;&gt;&lt;font style=&quot;font-size: 25px;&quot;&gt;Modifier les comptes utilisateur&lt;/font&gt;&lt;/span&gt;" style="ellipse;whiteSpace=wrap;html=1;" vertex="1" parent="1">
          <mxGeometry x="420" y="70" width="330" height="100" as="geometry" />
        </mxCell>
        <mxCell id="xIapYy1KkTOoVHICdkQV-5" value="&lt;font style=&quot;font-size: 27px;&quot;&gt;Consulter les demmandes LS&lt;/font&gt;" style="ellipse;whiteSpace=wrap;html=1;" vertex="1" parent="1">
          <mxGeometry x="740" y="860" width="230" height="120" as="geometry" />
        </mxCell>
        <mxCell id="xIapYy1KkTOoVHICdkQV-6" value="" style="endArrow=none;html=1;rounded=0;entryX=0;entryY=0.5;entryDx=0;entryDy=0;exitX=0.75;exitY=0.1;exitDx=0;exitDy=0;exitPerimeter=0;" edge="1" parent="1" source="xIapYy1KkTOoVHICdkQV-2" target="xIapYy1KkTOoVHICdkQV-3">
          <mxGeometry width="50" height="50" relative="1" as="geometry">
            <mxPoint x="90" y="70" as="sourcePoint" />
            <mxPoint x="140" y="20" as="targetPoint" />
          </mxGeometry>
        </mxCell>
        <mxCell id="xIapYy1KkTOoVHICdkQV-7" value="" style="endArrow=none;html=1;rounded=0;entryX=0;entryY=0.5;entryDx=0;entryDy=0;" edge="1" parent="1" source="xIapYy1KkTOoVHICdkQV-2" target="xIapYy1KkTOoVHICdkQV-60">
          <mxGeometry width="50" height="50" relative="1" as="geometry">
            <mxPoint x="90" y="80" as="sourcePoint" />
            <mxPoint x="140" y="30" as="targetPoint" />
            <Array as="points" />
          </mxGeometry>
        </mxCell>
        <mxCell id="xIapYy1KkTOoVHICdkQV-8" value="" style="endArrow=none;html=1;rounded=0;entryX=0;entryY=0.5;entryDx=0;entryDy=0;exitX=1;exitY=1;exitDx=0;exitDy=0;exitPerimeter=0;" edge="1" parent="1" source="xIapYy1KkTOoVHICdkQV-2" target="xIapYy1KkTOoVHICdkQV-4">
          <mxGeometry width="50" height="50" relative="1" as="geometry">
            <mxPoint x="90" y="100" as="sourcePoint" />
            <mxPoint x="140" y="50" as="targetPoint" />
          </mxGeometry>
        </mxCell>
        <mxCell id="xIapYy1KkTOoVHICdkQV-9" value="&lt;font style=&quot;font-size: 29px;&quot;&gt;corporate&lt;/font&gt;" style="shape=umlActor;verticalLabelPosition=bottom;verticalAlign=top;html=1;outlineConnect=0;" vertex="1" parent="1">
          <mxGeometry x="-710" y="770" width="90" height="120" as="geometry" />
        </mxCell>
        <mxCell id="xIapYy1KkTOoVHICdkQV-10" value="&lt;p class=&quot;MsoNormal&quot;&gt;&lt;font style=&quot;font-size: 24px;&quot;&gt;Créer une&amp;nbsp; demande de LS&lt;/font&gt;&lt;span style=&quot;font-size: 14pt;&quot;&gt;&lt;/span&gt;&lt;/p&gt;" style="ellipse;whiteSpace=wrap;html=1;" vertex="1" parent="1">
          <mxGeometry x="510" y="200" width="180" height="110" as="geometry" />
        </mxCell>
        <mxCell id="xIapYy1KkTOoVHICdkQV-11" value="&lt;p class=&quot;MsoNormal&quot;&gt;&lt;span style=&quot;font-family: &amp;quot;Times New Roman&amp;quot;, serif;&quot;&gt;&lt;font style=&quot;font-size: 24px;&quot;&gt;Modifier une demande LS existante&lt;/font&gt;&lt;/span&gt;&lt;/p&gt;" style="ellipse;whiteSpace=wrap;html=1;" vertex="1" parent="1">
          <mxGeometry x="770" y="270" width="170" height="110" as="geometry" />
        </mxCell>
        <mxCell id="xIapYy1KkTOoVHICdkQV-12" value="&lt;p class=&quot;MsoNormal&quot;&gt;&lt;span style=&quot;font-family: &amp;quot;Times New Roman&amp;quot;, serif;&quot;&gt;&lt;font style=&quot;font-size: 24px;&quot;&gt;Supprimer une demande LS existante&lt;/font&gt;&lt;/span&gt;&lt;/p&gt;" style="ellipse;whiteSpace=wrap;html=1;" vertex="1" parent="1">
          <mxGeometry x="780" y="380" width="180" height="130" as="geometry" />
        </mxCell>
        <mxCell id="xIapYy1KkTOoVHICdkQV-13" value="" style="endArrow=none;html=1;rounded=0;entryX=0;entryY=0.5;entryDx=0;entryDy=0;exitX=0.5;exitY=0;exitDx=0;exitDy=0;exitPerimeter=0;" edge="1" parent="1" source="xIapYy1KkTOoVHICdkQV-9" target="xIapYy1KkTOoVHICdkQV-10">
          <mxGeometry width="50" height="50" relative="1" as="geometry">
            <mxPoint x="70" y="-170" as="sourcePoint" />
            <mxPoint x="120" y="-220" as="targetPoint" />
          </mxGeometry>
        </mxCell>
        <mxCell id="xIapYy1KkTOoVHICdkQV-14" value="" style="endArrow=none;html=1;rounded=0;entryX=0;entryY=0.5;entryDx=0;entryDy=0;exitX=0.493;exitY=0.34;exitDx=0;exitDy=0;exitPerimeter=0;" edge="1" parent="1" source="xIapYy1KkTOoVHICdkQV-9" target="xIapYy1KkTOoVHICdkQV-12">
          <mxGeometry width="50" height="50" relative="1" as="geometry">
            <mxPoint x="70" y="-130" as="sourcePoint" />
            <mxPoint x="120" y="-180" as="targetPoint" />
          </mxGeometry>
        </mxCell>
        <mxCell id="xIapYy1KkTOoVHICdkQV-15" value="" style="endArrow=none;html=1;rounded=0;entryX=0;entryY=0.5;entryDx=0;entryDy=0;exitX=0.5;exitY=0.5;exitDx=0;exitDy=0;exitPerimeter=0;" edge="1" parent="1" source="xIapYy1KkTOoVHICdkQV-9" target="xIapYy1KkTOoVHICdkQV-11">
          <mxGeometry width="50" height="50" relative="1" as="geometry">
            <mxPoint x="70" y="-120" as="sourcePoint" />
            <mxPoint x="120" y="-170" as="targetPoint" />
          </mxGeometry>
        </mxCell>
        <mxCell id="xIapYy1KkTOoVHICdkQV-16" value="&lt;font style=&quot;font-size: 24px;&quot;&gt;Conformer la demmande de LS avec le client&lt;/font&gt;" style="ellipse;whiteSpace=wrap;html=1;" vertex="1" parent="1">
          <mxGeometry x="1080" y="690" width="200" height="110" as="geometry" />
        </mxCell>
        <mxCell id="xIapYy1KkTOoVHICdkQV-17" value="" style="endArrow=none;html=1;rounded=0;entryX=0;entryY=0;entryDx=0;entryDy=0;" edge="1" parent="1" source="xIapYy1KkTOoVHICdkQV-9" target="xIapYy1KkTOoVHICdkQV-30">
          <mxGeometry width="50" height="50" relative="1" as="geometry">
            <mxPoint x="80" y="-110" as="sourcePoint" />
            <mxPoint x="130" y="-160" as="targetPoint" />
          </mxGeometry>
        </mxCell>
        <mxCell id="xIapYy1KkTOoVHICdkQV-18" value="&lt;span style=&quot;font-family: &amp;quot;Times New Roman&amp;quot;, serif;&quot;&gt;&lt;font style=&quot;&quot;&gt;&lt;font style=&quot;font-size: 24px;&quot;&gt;Gérer les demandes LS&lt;/font&gt;&lt;br&gt;&lt;/font&gt;&lt;/span&gt;" style="ellipse;whiteSpace=wrap;html=1;" vertex="1" parent="1">
          <mxGeometry x="940" y="460" width="200" height="110" as="geometry" />
        </mxCell>
        <mxCell id="xIapYy1KkTOoVHICdkQV-19" value="" style="endArrow=none;html=1;rounded=0;" edge="1" parent="1" source="xIapYy1KkTOoVHICdkQV-9" target="xIapYy1KkTOoVHICdkQV-18">
          <mxGeometry width="50" height="50" relative="1" as="geometry">
            <mxPoint x="330" y="-90" as="sourcePoint" />
            <mxPoint x="380" y="-140" as="targetPoint" />
          </mxGeometry>
        </mxCell>
        <mxCell id="xIapYy1KkTOoVHICdkQV-20" value="&lt;span style=&quot;font-family: &amp;quot;Times New Roman&amp;quot;, serif;&quot;&gt;&lt;font style=&quot;font-size: 24px;&quot;&gt;supprimer les comptes utilisateur&lt;/font&gt;&lt;/span&gt;" style="ellipse;whiteSpace=wrap;html=1;" vertex="1" parent="1">
          <mxGeometry x="480" y="-280" width="330" height="110" as="geometry" />
        </mxCell>
        <mxCell id="xIapYy1KkTOoVHICdkQV-21" value="&lt;font style=&quot;font-size: 24px;&quot;&gt;Consulter et exporter les rapports d’utilisation&lt;/font&gt;" style="ellipse;whiteSpace=wrap;html=1;direction=south;" vertex="1" parent="1">
          <mxGeometry x="340" y="-170" width="310" height="90" as="geometry" />
        </mxCell>
        <mxCell id="xIapYy1KkTOoVHICdkQV-22" value="" style="endArrow=none;html=1;rounded=0;entryX=0;entryY=0.5;entryDx=0;entryDy=0;" edge="1" parent="1" source="xIapYy1KkTOoVHICdkQV-2" target="xIapYy1KkTOoVHICdkQV-21">
          <mxGeometry width="50" height="50" relative="1" as="geometry">
            <mxPoint x="340" y="-20" as="sourcePoint" />
            <mxPoint x="390" y="-70" as="targetPoint" />
          </mxGeometry>
        </mxCell>
        <mxCell id="xIapYy1KkTOoVHICdkQV-23" value="" style="endArrow=none;html=1;rounded=0;entryX=0;entryY=0;entryDx=0;entryDy=0;" edge="1" parent="1" source="xIapYy1KkTOoVHICdkQV-2" target="xIapYy1KkTOoVHICdkQV-20">
          <mxGeometry width="50" height="50" relative="1" as="geometry">
            <mxPoint x="340" y="-20" as="sourcePoint" />
            <mxPoint x="390" y="-70" as="targetPoint" />
          </mxGeometry>
        </mxCell>
        <mxCell id="xIapYy1KkTOoVHICdkQV-24" value="&lt;font style=&quot;font-size: 24px;&quot;&gt;Consulter la liste des LS&lt;/font&gt;" style="ellipse;whiteSpace=wrap;html=1;" vertex="1" parent="1">
          <mxGeometry x="940" y="580" width="180" height="105" as="geometry" />
        </mxCell>
        <mxCell id="xIapYy1KkTOoVHICdkQV-25" value="" style="endArrow=none;html=1;rounded=0;exitX=0.5;exitY=0.5;exitDx=0;exitDy=0;exitPerimeter=0;entryX=0;entryY=0.5;entryDx=0;entryDy=0;" edge="1" parent="1" source="xIapYy1KkTOoVHICdkQV-9" target="xIapYy1KkTOoVHICdkQV-24">
          <mxGeometry width="50" height="50" relative="1" as="geometry">
            <mxPoint x="430" y="130" as="sourcePoint" />
            <mxPoint x="667.5735931288073" y="321.7157287525383" as="targetPoint" />
          </mxGeometry>
        </mxCell>
        <mxCell id="xIapYy1KkTOoVHICdkQV-26" value="&lt;font style=&quot;font-size: 29px;&quot;&gt;service etude&lt;/font&gt;" style="shape=umlActor;verticalLabelPosition=bottom;verticalAlign=top;html=1;outlineConnect=0;" vertex="1" parent="1">
          <mxGeometry x="-649" y="1360" width="80" height="90" as="geometry" />
        </mxCell>
        <mxCell id="xIapYy1KkTOoVHICdkQV-27" value="" style="endArrow=none;html=1;rounded=0;exitX=1;exitY=1;exitDx=0;exitDy=0;exitPerimeter=0;" edge="1" parent="1" source="xIapYy1KkTOoVHICdkQV-26" target="xIapYy1KkTOoVHICdkQV-56">
          <mxGeometry width="50" height="50" relative="1" as="geometry">
            <mxPoint x="90" y="440" as="sourcePoint" />
            <mxPoint x="650" y="350" as="targetPoint" />
            <Array as="points" />
          </mxGeometry>
        </mxCell>
        <mxCell id="xIapYy1KkTOoVHICdkQV-28" value="" style="endArrow=none;html=1;rounded=0;exitX=0.5;exitY=0.5;exitDx=0;exitDy=0;exitPerimeter=0;entryX=0;entryY=1;entryDx=0;entryDy=0;" edge="1" parent="1" source="xIapYy1KkTOoVHICdkQV-9" target="xIapYy1KkTOoVHICdkQV-5">
          <mxGeometry width="50" height="50" relative="1" as="geometry">
            <mxPoint x="470" y="210" as="sourcePoint" />
            <mxPoint x="520" y="160" as="targetPoint" />
          </mxGeometry>
        </mxCell>
        <mxCell id="xIapYy1KkTOoVHICdkQV-29" value="" style="endArrow=none;html=1;rounded=0;entryX=0;entryY=0.5;entryDx=0;entryDy=0;" edge="1" parent="1" source="xIapYy1KkTOoVHICdkQV-26" target="xIapYy1KkTOoVHICdkQV-59">
          <mxGeometry width="50" height="50" relative="1" as="geometry">
            <mxPoint x="730" y="390" as="sourcePoint" />
            <mxPoint x="780" y="340" as="targetPoint" />
          </mxGeometry>
        </mxCell>
        <mxCell id="xIapYy1KkTOoVHICdkQV-30" value="&lt;font style=&quot;font-size: 24px;&quot;&gt;inseer contrat&lt;/font&gt;&lt;div&gt;&lt;br&gt;&lt;/div&gt;" style="ellipse;whiteSpace=wrap;html=1;" vertex="1" parent="1">
          <mxGeometry x="620" y="730" width="190" height="130" as="geometry" />
        </mxCell>
        <mxCell id="xIapYy1KkTOoVHICdkQV-31" value="" style="endArrow=none;dashed=1;html=1;rounded=0;entryX=1;entryY=0.5;entryDx=0;entryDy=0;entryPerimeter=0;" edge="1" parent="1" source="xIapYy1KkTOoVHICdkQV-16" target="xIapYy1KkTOoVHICdkQV-30">
          <mxGeometry width="50" height="50" relative="1" as="geometry">
            <mxPoint x="730" y="170" as="sourcePoint" />
            <mxPoint x="510" y="220" as="targetPoint" />
          </mxGeometry>
        </mxCell>
        <mxCell id="xIapYy1KkTOoVHICdkQV-32" value="&lt;font style=&quot;font-size: 24px;&quot;&gt;Gérer letat de fusabilité de la demmande&lt;/font&gt;" style="ellipse;whiteSpace=wrap;html=1;" vertex="1" parent="1">
          <mxGeometry x="370" y="1230" width="240" height="150" as="geometry" />
        </mxCell>
        <mxCell id="xIapYy1KkTOoVHICdkQV-33" value="" style="endArrow=none;html=1;rounded=0;exitX=0.5;exitY=0.5;exitDx=0;exitDy=0;exitPerimeter=0;entryX=0;entryY=0.5;entryDx=0;entryDy=0;" edge="1" parent="1" source="xIapYy1KkTOoVHICdkQV-26" target="xIapYy1KkTOoVHICdkQV-32">
          <mxGeometry width="50" height="50" relative="1" as="geometry">
            <mxPoint x="510" y="530" as="sourcePoint" />
            <mxPoint x="560" y="480" as="targetPoint" />
            <Array as="points" />
          </mxGeometry>
        </mxCell>
        <mxCell id="xIapYy1KkTOoVHICdkQV-34" value="&lt;font style=&quot;font-size: 25px;&quot;&gt;valider&amp;nbsp;&lt;/font&gt;" style="ellipse;whiteSpace=wrap;html=1;" vertex="1" parent="1">
          <mxGeometry x="980" y="1120" width="160" height="110" as="geometry" />
        </mxCell>
        <mxCell id="xIapYy1KkTOoVHICdkQV-35" value="&lt;font style=&quot;font-size: 24px;&quot;&gt;refuser&lt;/font&gt;" style="ellipse;whiteSpace=wrap;html=1;" vertex="1" parent="1">
          <mxGeometry x="1020" y="1240" width="150" height="120" as="geometry" />
        </mxCell>
        <mxCell id="xIapYy1KkTOoVHICdkQV-36" value="" style="endArrow=none;html=1;rounded=0;exitX=0.921;exitY=0.285;exitDx=0;exitDy=0;exitPerimeter=0;entryX=0;entryY=0.5;entryDx=0;entryDy=0;" edge="1" parent="1" source="xIapYy1KkTOoVHICdkQV-32" target="xIapYy1KkTOoVHICdkQV-34">
          <mxGeometry width="50" height="50" relative="1" as="geometry">
            <mxPoint x="510" y="530" as="sourcePoint" />
            <mxPoint x="560" y="480" as="targetPoint" />
          </mxGeometry>
        </mxCell>
        <mxCell id="xIapYy1KkTOoVHICdkQV-37" value="" style="endArrow=none;html=1;rounded=0;entryX=1;entryY=1;entryDx=0;entryDy=0;exitX=0;exitY=0.5;exitDx=0;exitDy=0;" edge="1" parent="1" source="xIapYy1KkTOoVHICdkQV-35" target="xIapYy1KkTOoVHICdkQV-32">
          <mxGeometry width="50" height="50" relative="1" as="geometry">
            <mxPoint x="510" y="530" as="sourcePoint" />
            <mxPoint x="560" y="480" as="targetPoint" />
          </mxGeometry>
        </mxCell>
        <mxCell id="xIapYy1KkTOoVHICdkQV-38" value="&lt;font style=&quot;font-size: 28px;&quot;&gt;service réalisation&lt;/font&gt;" style="shape=umlActor;verticalLabelPosition=bottom;verticalAlign=top;html=1;outlineConnect=0;" vertex="1" parent="1">
          <mxGeometry x="-590" y="1730" width="30" height="60" as="geometry" />
        </mxCell>
        <mxCell id="xIapYy1KkTOoVHICdkQV-39" value="include&lt;div&gt;&lt;br&gt;&lt;/div&gt;" style="text;strokeColor=none;fillColor=none;html=1;fontSize=24;fontStyle=1;verticalAlign=middle;align=center;" vertex="1" parent="1">
          <mxGeometry x="870" y="770" width="100" height="40" as="geometry" />
        </mxCell>
        <mxCell id="xIapYy1KkTOoVHICdkQV-40" value="&lt;font style=&quot;font-size: 24px;&quot;&gt;envoyer ls au service comercial&lt;/font&gt;" style="ellipse;whiteSpace=wrap;html=1;" vertex="1" parent="1">
          <mxGeometry x="1210" y="1720" width="220" height="150" as="geometry" />
        </mxCell>
        <mxCell id="xIapYy1KkTOoVHICdkQV-41" value="" style="endArrow=none;html=1;rounded=0;exitX=0.5;exitY=0.5;exitDx=0;exitDy=0;exitPerimeter=0;entryX=0;entryY=0.5;entryDx=0;entryDy=0;" edge="1" parent="1" source="xIapYy1KkTOoVHICdkQV-38" target="xIapYy1KkTOoVHICdkQV-40">
          <mxGeometry width="50" height="50" relative="1" as="geometry">
            <mxPoint x="490" y="960" as="sourcePoint" />
            <mxPoint x="540" y="910" as="targetPoint" />
          </mxGeometry>
        </mxCell>
        <mxCell id="xIapYy1KkTOoVHICdkQV-42" value="&lt;font style=&quot;font-size: 29px;&quot;&gt;service comercial&lt;/font&gt;" style="shape=umlActor;verticalLabelPosition=bottom;verticalAlign=top;html=1;outlineConnect=0;" vertex="1" parent="1">
          <mxGeometry x="-649" y="2150" width="74" height="100" as="geometry" />
        </mxCell>
        <mxCell id="xIapYy1KkTOoVHICdkQV-43" value="&lt;font style=&quot;font-size: 24px;&quot;&gt;afficter ND au LS&lt;/font&gt;" style="ellipse;whiteSpace=wrap;html=1;" vertex="1" parent="1">
          <mxGeometry x="1320" y="1890" width="230" height="140" as="geometry" />
        </mxCell>
        <mxCell id="xIapYy1KkTOoVHICdkQV-44" value="" style="endArrow=none;html=1;rounded=0;exitX=0.5;exitY=0.5;exitDx=0;exitDy=0;exitPerimeter=0;entryX=0;entryY=0.5;entryDx=0;entryDy=0;" edge="1" parent="1" source="xIapYy1KkTOoVHICdkQV-42" target="xIapYy1KkTOoVHICdkQV-43">
          <mxGeometry width="50" height="50" relative="1" as="geometry">
            <mxPoint x="490" y="960" as="sourcePoint" />
            <mxPoint x="540" y="910" as="targetPoint" />
          </mxGeometry>
        </mxCell>
        <mxCell id="xIapYy1KkTOoVHICdkQV-45" value="&lt;font style=&quot;font-size: 24px;&quot;&gt;modifier l&#39;etat de factoration&lt;/font&gt;" style="ellipse;whiteSpace=wrap;html=1;" vertex="1" parent="1">
          <mxGeometry x="1620" y="2080" width="220" height="150" as="geometry" />
        </mxCell>
        <mxCell id="xIapYy1KkTOoVHICdkQV-46" value="" style="endArrow=none;html=1;rounded=0;exitX=1;exitY=1;exitDx=0;exitDy=0;exitPerimeter=0;entryX=0;entryY=0.5;entryDx=0;entryDy=0;" edge="1" parent="1" source="xIapYy1KkTOoVHICdkQV-42" target="xIapYy1KkTOoVHICdkQV-45">
          <mxGeometry width="50" height="50" relative="1" as="geometry">
            <mxPoint x="490" y="960" as="sourcePoint" />
            <mxPoint x="540" y="910" as="targetPoint" />
          </mxGeometry>
        </mxCell>
        <mxCell id="xIapYy1KkTOoVHICdkQV-47" value="&lt;font style=&quot;font-size: 25px;&quot;&gt;commancé la factoration&lt;/font&gt;" style="ellipse;whiteSpace=wrap;html=1;" vertex="1" parent="1">
          <mxGeometry x="1940" y="1960" width="190" height="150" as="geometry" />
        </mxCell>
        <mxCell id="xIapYy1KkTOoVHICdkQV-48" value="&lt;font style=&quot;font-size: 25px;&quot;&gt;aretter la factoration&lt;/font&gt;" style="ellipse;whiteSpace=wrap;html=1;" vertex="1" parent="1">
          <mxGeometry x="1910" y="2198" width="260" height="140" as="geometry" />
        </mxCell>
        <mxCell id="xIapYy1KkTOoVHICdkQV-49" value="" style="endArrow=none;html=1;rounded=0;entryX=0;entryY=0.5;entryDx=0;entryDy=0;exitX=1;exitY=0;exitDx=0;exitDy=0;" edge="1" parent="1" source="xIapYy1KkTOoVHICdkQV-45" target="xIapYy1KkTOoVHICdkQV-47">
          <mxGeometry width="50" height="50" relative="1" as="geometry">
            <mxPoint x="490" y="960" as="sourcePoint" />
            <mxPoint x="540" y="910" as="targetPoint" />
          </mxGeometry>
        </mxCell>
        <mxCell id="xIapYy1KkTOoVHICdkQV-50" value="" style="endArrow=none;html=1;rounded=0;entryX=0.071;entryY=0.35;entryDx=0;entryDy=0;entryPerimeter=0;exitX=1;exitY=1;exitDx=0;exitDy=0;" edge="1" parent="1" source="xIapYy1KkTOoVHICdkQV-45" target="xIapYy1KkTOoVHICdkQV-48">
          <mxGeometry width="50" height="50" relative="1" as="geometry">
            <mxPoint x="490" y="960" as="sourcePoint" />
            <mxPoint x="540" y="910" as="targetPoint" />
          </mxGeometry>
        </mxCell>
        <mxCell id="xIapYy1KkTOoVHICdkQV-51" value="&lt;font style=&quot;font-size: 39px;&quot;&gt;authentification&lt;/font&gt;" style="ellipse;whiteSpace=wrap;html=1;" vertex="1" parent="1">
          <mxGeometry x="2300" y="420" width="425" height="155" as="geometry" />
        </mxCell>
        <mxCell id="xIapYy1KkTOoVHICdkQV-52" value="DD" style="endArrow=none;dashed=1;html=1;dashPattern=1 3;strokeWidth=2;rounded=0;entryX=0.5;entryY=0;entryDx=0;entryDy=0;exitX=1;exitY=0;exitDx=0;exitDy=0;" edge="1" parent="1" source="xIapYy1KkTOoVHICdkQV-3" target="xIapYy1KkTOoVHICdkQV-51">
          <mxGeometry width="50" height="50" relative="1" as="geometry">
            <mxPoint x="1220" y="800" as="sourcePoint" />
            <mxPoint x="1270" y="750" as="targetPoint" />
          </mxGeometry>
        </mxCell>
        <mxCell id="xIapYy1KkTOoVHICdkQV-53" value="" style="endArrow=none;dashed=1;html=1;dashPattern=1 3;strokeWidth=2;rounded=0;entryX=0;entryY=0.5;entryDx=0;entryDy=0;exitX=0.5;exitY=0;exitDx=0;exitDy=0;" edge="1" parent="1" source="xIapYy1KkTOoVHICdkQV-21" target="xIapYy1KkTOoVHICdkQV-51">
          <mxGeometry width="50" height="50" relative="1" as="geometry">
            <mxPoint x="1220" y="800" as="sourcePoint" />
            <mxPoint x="1270" y="750" as="targetPoint" />
          </mxGeometry>
        </mxCell>
        <mxCell id="xIapYy1KkTOoVHICdkQV-54" value="&lt;font style=&quot;font-size: 24px;&quot;&gt;Consulter la liste des LS&lt;/font&gt;" style="ellipse;whiteSpace=wrap;html=1;" vertex="1" parent="1">
          <mxGeometry x="1120" y="1560" width="270" height="160" as="geometry" />
        </mxCell>
        <mxCell id="xIapYy1KkTOoVHICdkQV-55" value="" style="endArrow=none;html=1;rounded=0;exitX=0.5;exitY=0.5;exitDx=0;exitDy=0;exitPerimeter=0;entryX=0;entryY=0.5;entryDx=0;entryDy=0;" edge="1" parent="1" source="xIapYy1KkTOoVHICdkQV-38" target="xIapYy1KkTOoVHICdkQV-54">
          <mxGeometry width="50" height="50" relative="1" as="geometry">
            <mxPoint x="-200" y="1040" as="sourcePoint" />
            <mxPoint x="640" y="1070" as="targetPoint" />
          </mxGeometry>
        </mxCell>
        <mxCell id="xIapYy1KkTOoVHICdkQV-56" value="&lt;font style=&quot;font-size: 24px;&quot;&gt;Consulter la liste des LS&lt;/font&gt;" style="ellipse;whiteSpace=wrap;html=1;" vertex="1" parent="1">
          <mxGeometry x="1110" y="1390" width="239" height="150" as="geometry" />
        </mxCell>
        <mxCell id="xIapYy1KkTOoVHICdkQV-57" value="&lt;font style=&quot;font-size: 26px;&quot;&gt;Consulter la liste des LS&lt;/font&gt;" style="ellipse;whiteSpace=wrap;html=1;" vertex="1" parent="1">
          <mxGeometry x="160" y="-600" width="260" height="160" as="geometry" />
        </mxCell>
        <mxCell id="xIapYy1KkTOoVHICdkQV-58" value="" style="endArrow=none;html=1;rounded=0;entryX=0;entryY=0.5;entryDx=0;entryDy=0;exitX=0;exitY=0.3333333333333333;exitDx=0;exitDy=0;exitPerimeter=0;" edge="1" parent="1" source="xIapYy1KkTOoVHICdkQV-2" target="xIapYy1KkTOoVHICdkQV-57">
          <mxGeometry width="50" height="50" relative="1" as="geometry">
            <mxPoint x="-107" y="-304" as="sourcePoint" />
            <mxPoint x="430" y="-305" as="targetPoint" />
          </mxGeometry>
        </mxCell>
        <mxCell id="xIapYy1KkTOoVHICdkQV-59" value="&lt;font style=&quot;font-size: 24px;&quot;&gt;Consulter les demmandes LS&lt;/font&gt;" style="ellipse;whiteSpace=wrap;html=1;" vertex="1" parent="1">
          <mxGeometry x="350" y="1050" width="300" height="130" as="geometry" />
        </mxCell>
        <mxCell id="xIapYy1KkTOoVHICdkQV-60" value="&lt;font style=&quot;font-size: 25px;&quot;&gt;Consulter les demmandes LS&lt;/font&gt;" style="ellipse;whiteSpace=wrap;html=1;" vertex="1" parent="1">
          <mxGeometry x="580" y="-40" width="330" height="90" as="geometry" />
        </mxCell>
        <mxCell id="xIapYy1KkTOoVHICdkQV-61" value="" style="endArrow=none;dashed=1;html=1;dashPattern=1 3;strokeWidth=2;rounded=0;entryX=0;entryY=0;entryDx=0;entryDy=0;" edge="1" parent="1" source="xIapYy1KkTOoVHICdkQV-57" target="xIapYy1KkTOoVHICdkQV-51">
          <mxGeometry width="50" height="50" relative="1" as="geometry">
            <mxPoint x="1040" y="530" as="sourcePoint" />
            <mxPoint x="1090" y="480" as="targetPoint" />
          </mxGeometry>
        </mxCell>
        <mxCell id="xIapYy1KkTOoVHICdkQV-62" value="" style="endArrow=none;dashed=1;html=1;dashPattern=1 3;strokeWidth=2;rounded=0;entryX=1;entryY=1;entryDx=0;entryDy=0;exitX=0;exitY=0;exitDx=0;exitDy=0;" edge="1" parent="1" source="xIapYy1KkTOoVHICdkQV-51" target="xIapYy1KkTOoVHICdkQV-20">
          <mxGeometry width="50" height="50" relative="1" as="geometry">
            <mxPoint x="1140" y="300" as="sourcePoint" />
            <mxPoint x="1190" y="250" as="targetPoint" />
          </mxGeometry>
        </mxCell>
        <mxCell id="xIapYy1KkTOoVHICdkQV-63" value="" style="endArrow=none;dashed=1;html=1;dashPattern=1 3;strokeWidth=2;rounded=0;entryX=1;entryY=0;entryDx=0;entryDy=0;exitX=0;exitY=0;exitDx=0;exitDy=0;" edge="1" parent="1" source="xIapYy1KkTOoVHICdkQV-51" target="xIapYy1KkTOoVHICdkQV-60">
          <mxGeometry width="50" height="50" relative="1" as="geometry">
            <mxPoint x="1140" y="300" as="sourcePoint" />
            <mxPoint x="1190" y="250" as="targetPoint" />
          </mxGeometry>
        </mxCell>
        <mxCell id="xIapYy1KkTOoVHICdkQV-64" value="" style="endArrow=none;dashed=1;html=1;dashPattern=1 3;strokeWidth=2;rounded=0;entryX=1;entryY=1;entryDx=0;entryDy=0;exitX=0.5;exitY=0;exitDx=0;exitDy=0;" edge="1" parent="1" source="xIapYy1KkTOoVHICdkQV-51" target="xIapYy1KkTOoVHICdkQV-4">
          <mxGeometry width="50" height="50" relative="1" as="geometry">
            <mxPoint x="1140" y="300" as="sourcePoint" />
            <mxPoint x="1190" y="250" as="targetPoint" />
          </mxGeometry>
        </mxCell>
        <mxCell id="xIapYy1KkTOoVHICdkQV-65" value="" style="endArrow=none;dashed=1;html=1;dashPattern=1 3;strokeWidth=2;rounded=0;entryX=1;entryY=0.5;entryDx=0;entryDy=0;exitX=0.331;exitY=0.15;exitDx=0;exitDy=0;exitPerimeter=0;" edge="1" parent="1" source="xIapYy1KkTOoVHICdkQV-51" target="xIapYy1KkTOoVHICdkQV-10">
          <mxGeometry width="50" height="50" relative="1" as="geometry">
            <mxPoint x="1140" y="300" as="sourcePoint" />
            <mxPoint x="1190" y="250" as="targetPoint" />
          </mxGeometry>
        </mxCell>
        <mxCell id="xIapYy1KkTOoVHICdkQV-66" value="" style="endArrow=none;dashed=1;html=1;dashPattern=1 3;strokeWidth=2;rounded=0;entryX=1;entryY=0.5;entryDx=0;entryDy=0;exitX=0;exitY=0;exitDx=0;exitDy=0;" edge="1" parent="1" source="xIapYy1KkTOoVHICdkQV-51" target="xIapYy1KkTOoVHICdkQV-11">
          <mxGeometry width="50" height="50" relative="1" as="geometry">
            <mxPoint x="1140" y="300" as="sourcePoint" />
            <mxPoint x="1190" y="250" as="targetPoint" />
          </mxGeometry>
        </mxCell>
        <mxCell id="xIapYy1KkTOoVHICdkQV-67" value="" style="endArrow=none;dashed=1;html=1;dashPattern=1 3;strokeWidth=2;rounded=0;entryX=1;entryY=0.5;entryDx=0;entryDy=0;exitX=0;exitY=0;exitDx=0;exitDy=0;" edge="1" parent="1" source="xIapYy1KkTOoVHICdkQV-51" target="xIapYy1KkTOoVHICdkQV-12">
          <mxGeometry width="50" height="50" relative="1" as="geometry">
            <mxPoint x="1140" y="300" as="sourcePoint" />
            <mxPoint x="1190" y="250" as="targetPoint" />
          </mxGeometry>
        </mxCell>
        <mxCell id="xIapYy1KkTOoVHICdkQV-68" value="" style="endArrow=none;dashed=1;html=1;dashPattern=1 3;strokeWidth=2;rounded=0;entryX=1;entryY=0;entryDx=0;entryDy=0;" edge="1" parent="1" source="xIapYy1KkTOoVHICdkQV-51" target="xIapYy1KkTOoVHICdkQV-18">
          <mxGeometry width="50" height="50" relative="1" as="geometry">
            <mxPoint x="1140" y="530" as="sourcePoint" />
            <mxPoint x="1190" y="480" as="targetPoint" />
          </mxGeometry>
        </mxCell>
        <mxCell id="xIapYy1KkTOoVHICdkQV-69" value="" style="endArrow=none;dashed=1;html=1;dashPattern=1 3;strokeWidth=2;rounded=0;entryX=1;entryY=0;entryDx=0;entryDy=0;exitX=0;exitY=0.5;exitDx=0;exitDy=0;" edge="1" parent="1" source="xIapYy1KkTOoVHICdkQV-51" target="xIapYy1KkTOoVHICdkQV-24">
          <mxGeometry width="50" height="50" relative="1" as="geometry">
            <mxPoint x="1140" y="530" as="sourcePoint" />
            <mxPoint x="1190" y="480" as="targetPoint" />
          </mxGeometry>
        </mxCell>
        <mxCell id="xIapYy1KkTOoVHICdkQV-70" value="" style="endArrow=none;dashed=1;html=1;dashPattern=1 3;strokeWidth=2;rounded=0;exitX=1;exitY=0;exitDx=0;exitDy=0;entryX=0;entryY=0.5;entryDx=0;entryDy=0;" edge="1" parent="1" source="xIapYy1KkTOoVHICdkQV-30" target="xIapYy1KkTOoVHICdkQV-51">
          <mxGeometry width="50" height="50" relative="1" as="geometry">
            <mxPoint x="1140" y="530" as="sourcePoint" />
            <mxPoint x="1190" y="480" as="targetPoint" />
          </mxGeometry>
        </mxCell>
        <mxCell id="xIapYy1KkTOoVHICdkQV-71" value="" style="endArrow=none;dashed=1;html=1;dashPattern=1 3;strokeWidth=2;rounded=0;exitX=1;exitY=0.5;exitDx=0;exitDy=0;entryX=0;entryY=1;entryDx=0;entryDy=0;" edge="1" parent="1" source="xIapYy1KkTOoVHICdkQV-16" target="xIapYy1KkTOoVHICdkQV-51">
          <mxGeometry width="50" height="50" relative="1" as="geometry">
            <mxPoint x="1140" y="530" as="sourcePoint" />
            <mxPoint x="1190" y="480" as="targetPoint" />
          </mxGeometry>
        </mxCell>
        <mxCell id="xIapYy1KkTOoVHICdkQV-72" value="" style="endArrow=none;dashed=1;html=1;dashPattern=1 3;strokeWidth=2;rounded=0;exitX=1;exitY=0;exitDx=0;exitDy=0;entryX=0;entryY=1;entryDx=0;entryDy=0;" edge="1" parent="1" source="xIapYy1KkTOoVHICdkQV-5" target="xIapYy1KkTOoVHICdkQV-51">
          <mxGeometry width="50" height="50" relative="1" as="geometry">
            <mxPoint x="1140" y="530" as="sourcePoint" />
            <mxPoint x="1190" y="480" as="targetPoint" />
          </mxGeometry>
        </mxCell>
        <mxCell id="xIapYy1KkTOoVHICdkQV-73" value="" style="endArrow=none;dashed=1;html=1;dashPattern=1 3;strokeWidth=2;rounded=0;exitX=1;exitY=0.5;exitDx=0;exitDy=0;entryX=0.331;entryY=0.883;entryDx=0;entryDy=0;entryPerimeter=0;" edge="1" parent="1" source="xIapYy1KkTOoVHICdkQV-59" target="xIapYy1KkTOoVHICdkQV-51">
          <mxGeometry width="50" height="50" relative="1" as="geometry">
            <mxPoint x="1140" y="890" as="sourcePoint" />
            <mxPoint x="1190" y="840" as="targetPoint" />
          </mxGeometry>
        </mxCell>
        <mxCell id="xIapYy1KkTOoVHICdkQV-74" value="" style="endArrow=none;dashed=1;html=1;dashPattern=1 3;strokeWidth=2;rounded=0;exitX=0.5;exitY=0;exitDx=0;exitDy=0;entryX=0.5;entryY=1;entryDx=0;entryDy=0;" edge="1" parent="1" source="xIapYy1KkTOoVHICdkQV-32" target="xIapYy1KkTOoVHICdkQV-51">
          <mxGeometry width="50" height="50" relative="1" as="geometry">
            <mxPoint x="1140" y="890" as="sourcePoint" />
            <mxPoint x="1190" y="840" as="targetPoint" />
          </mxGeometry>
        </mxCell>
        <mxCell id="xIapYy1KkTOoVHICdkQV-75" value="" style="endArrow=none;dashed=1;html=1;dashPattern=1 3;strokeWidth=2;rounded=0;entryX=0.5;entryY=1;entryDx=0;entryDy=0;" edge="1" parent="1" source="xIapYy1KkTOoVHICdkQV-34" target="xIapYy1KkTOoVHICdkQV-51">
          <mxGeometry width="50" height="50" relative="1" as="geometry">
            <mxPoint x="1140" y="890" as="sourcePoint" />
            <mxPoint x="1190" y="840" as="targetPoint" />
          </mxGeometry>
        </mxCell>
        <mxCell id="xIapYy1KkTOoVHICdkQV-76" value="" style="endArrow=none;dashed=1;html=1;dashPattern=1 3;strokeWidth=2;rounded=0;entryX=0.5;entryY=1;entryDx=0;entryDy=0;" edge="1" parent="1" source="xIapYy1KkTOoVHICdkQV-35" target="xIapYy1KkTOoVHICdkQV-51">
          <mxGeometry width="50" height="50" relative="1" as="geometry">
            <mxPoint x="1140" y="890" as="sourcePoint" />
            <mxPoint x="1190" y="840" as="targetPoint" />
          </mxGeometry>
        </mxCell>
        <mxCell id="xIapYy1KkTOoVHICdkQV-77" value="" style="endArrow=none;dashed=1;html=1;dashPattern=1 3;strokeWidth=2;rounded=0;exitX=0.996;exitY=0.34;exitDx=0;exitDy=0;entryX=0.5;entryY=1;entryDx=0;entryDy=0;exitPerimeter=0;" edge="1" parent="1" source="xIapYy1KkTOoVHICdkQV-56" target="xIapYy1KkTOoVHICdkQV-51">
          <mxGeometry width="50" height="50" relative="1" as="geometry">
            <mxPoint x="1140" y="890" as="sourcePoint" />
            <mxPoint x="1190" y="840" as="targetPoint" />
          </mxGeometry>
        </mxCell>
        <mxCell id="xIapYy1KkTOoVHICdkQV-78" value="" style="endArrow=none;dashed=1;html=1;dashPattern=1 3;strokeWidth=2;rounded=0;exitX=1;exitY=0;exitDx=0;exitDy=0;entryX=0.5;entryY=1;entryDx=0;entryDy=0;" edge="1" parent="1" source="xIapYy1KkTOoVHICdkQV-54" target="xIapYy1KkTOoVHICdkQV-51">
          <mxGeometry width="50" height="50" relative="1" as="geometry">
            <mxPoint x="1140" y="1650" as="sourcePoint" />
            <mxPoint x="1190" y="1600" as="targetPoint" />
          </mxGeometry>
        </mxCell>
        <mxCell id="xIapYy1KkTOoVHICdkQV-79" value="" style="endArrow=none;dashed=1;html=1;dashPattern=1 3;strokeWidth=2;rounded=0;exitX=1;exitY=0;exitDx=0;exitDy=0;entryX=0.5;entryY=1;entryDx=0;entryDy=0;" edge="1" parent="1" source="xIapYy1KkTOoVHICdkQV-40" target="xIapYy1KkTOoVHICdkQV-51">
          <mxGeometry width="50" height="50" relative="1" as="geometry">
            <mxPoint x="1610" y="1310" as="sourcePoint" />
            <mxPoint x="1660" y="1260" as="targetPoint" />
          </mxGeometry>
        </mxCell>
        <mxCell id="xIapYy1KkTOoVHICdkQV-80" value="" style="endArrow=none;dashed=1;html=1;dashPattern=1 3;strokeWidth=2;rounded=0;exitX=1;exitY=0;exitDx=0;exitDy=0;entryX=1;entryY=1;entryDx=0;entryDy=0;" edge="1" parent="1" source="xIapYy1KkTOoVHICdkQV-43" target="xIapYy1KkTOoVHICdkQV-51">
          <mxGeometry width="50" height="50" relative="1" as="geometry">
            <mxPoint x="1610" y="1310" as="sourcePoint" />
            <mxPoint x="1660" y="1260" as="targetPoint" />
          </mxGeometry>
        </mxCell>
        <mxCell id="xIapYy1KkTOoVHICdkQV-81" value="" style="endArrow=none;dashed=1;html=1;dashPattern=1 3;strokeWidth=2;rounded=0;exitX=0.5;exitY=0;exitDx=0;exitDy=0;entryX=0.5;entryY=1;entryDx=0;entryDy=0;" edge="1" parent="1" source="xIapYy1KkTOoVHICdkQV-45" target="xIapYy1KkTOoVHICdkQV-51">
          <mxGeometry width="50" height="50" relative="1" as="geometry">
            <mxPoint x="1610" y="1720" as="sourcePoint" />
            <mxPoint x="1660" y="1670" as="targetPoint" />
          </mxGeometry>
        </mxCell>
        <mxCell id="xIapYy1KkTOoVHICdkQV-82" value="" style="endArrow=none;dashed=1;html=1;dashPattern=1 3;strokeWidth=2;rounded=0;exitX=0.331;exitY=0.15;exitDx=0;exitDy=0;exitPerimeter=0;entryX=0.691;entryY=1.006;entryDx=0;entryDy=0;entryPerimeter=0;" edge="1" parent="1" source="xIapYy1KkTOoVHICdkQV-47" target="xIapYy1KkTOoVHICdkQV-51">
          <mxGeometry width="50" height="50" relative="1" as="geometry">
            <mxPoint x="1610" y="1420" as="sourcePoint" />
            <mxPoint x="2670" y="490" as="targetPoint" />
          </mxGeometry>
        </mxCell>
        <mxCell id="xIapYy1KkTOoVHICdkQV-83" value="" style="endArrow=none;dashed=1;html=1;dashPattern=1 3;strokeWidth=2;rounded=0;exitX=1;exitY=0;exitDx=0;exitDy=0;" edge="1" parent="1" source="xIapYy1KkTOoVHICdkQV-48" target="xIapYy1KkTOoVHICdkQV-51">
          <mxGeometry width="50" height="50" relative="1" as="geometry">
            <mxPoint x="1610" y="2390" as="sourcePoint" />
            <mxPoint x="2660" y="500" as="targetPoint" />
          </mxGeometry>
        </mxCell>
        <mxCell id="xIapYy1KkTOoVHICdkQV-84" value="&lt;font style=&quot;font-size: 29px;&quot;&gt;lancer factoration&lt;/font&gt;" style="ellipse;whiteSpace=wrap;html=1;" vertex="1" parent="1">
          <mxGeometry x="1128" y="2000" width="225" height="150" as="geometry" />
        </mxCell>
        <mxCell id="xIapYy1KkTOoVHICdkQV-85" value="" style="endArrow=none;html=1;rounded=0;exitX=0.5;exitY=0.5;exitDx=0;exitDy=0;exitPerimeter=0;" edge="1" parent="1" source="xIapYy1KkTOoVHICdkQV-42" target="xIapYy1KkTOoVHICdkQV-84">
          <mxGeometry width="50" height="50" relative="1" as="geometry">
            <mxPoint x="575" y="1550" as="sourcePoint" />
            <mxPoint x="625" y="1500" as="targetPoint" />
          </mxGeometry>
        </mxCell>
        <mxCell id="xIapYy1KkTOoVHICdkQV-86" value="&lt;font style=&quot;font-size: 24px;&quot;&gt;Consulter les demmandes LS&lt;/font&gt;" style="ellipse;whiteSpace=wrap;html=1;" vertex="1" parent="1">
          <mxGeometry x="510" y="1525" width="300" height="130" as="geometry" />
        </mxCell>
        <mxCell id="xIapYy1KkTOoVHICdkQV-87" value="&lt;font style=&quot;font-size: 24px;&quot;&gt;valider comme terminé&lt;/font&gt;" style="ellipse;whiteSpace=wrap;html=1;" vertex="1" parent="1">
          <mxGeometry x="660" y="1830" width="300" height="130" as="geometry" />
        </mxCell>
        <mxCell id="xIapYy1KkTOoVHICdkQV-88" value="&lt;font style=&quot;font-size: 29px;&quot;&gt;lancer factoration&lt;/font&gt;" style="ellipse;whiteSpace=wrap;html=1;" vertex="1" parent="1">
          <mxGeometry x="970" y="2198" width="225" height="150" as="geometry" />
        </mxCell>
        <mxCell id="xIapYy1KkTOoVHICdkQV-89" value="&lt;font style=&quot;font-size: 29px;&quot;&gt;lancer factoration&lt;/font&gt;" style="ellipse;whiteSpace=wrap;html=1;" vertex="1" parent="1">
          <mxGeometry x="715" y="2198" width="225" height="150" as="geometry" />
        </mxCell>
      </root>
    </mxGraphModel>
  </diagram>
</mxfile>
